<svg width="45" height="44" viewBox="0 0 45 44" fill="none" xmlns="http://www.w3.org/2000/svg">
<path d="M22.0219 42C26.3665 41.999 30.5927 40.5834 34.0612 37.9671C37.5298 35.3509 40.0521 31.6763 41.2467 27.4992C42.4413 23.322 42.2432 18.8695 40.6824 14.8149C39.1215 10.7603 36.2829 7.32429 32.5957 5.0264C28.9085 2.72851 24.5733 1.69377 20.2458 2.07866C15.9183 2.46355 11.8337 4.24713 8.60997 7.15968C5.38619 10.0722 3.19849 13.9553 2.37773 18.2217C1.55697 22.4881 2.14778 26.9057 4.06082 30.8065C4.29434 31.2821 4.37217 31.8184 4.25325 32.3329L2.48893 39.9783C2.43919 40.1929 2.4449 40.4166 2.50551 40.6283C2.56612 40.8401 2.67965 41.0329 2.83539 41.1886C2.99112 41.3444 3.18395 41.4579 3.39569 41.5185C3.60744 41.5791 3.83113 41.5848 4.04569 41.5351L11.6889 39.7686C12.205 39.6556 12.7442 39.7244 13.2154 39.9632C15.9557 41.3089 18.969 42.0058 22.0219 42Z" stroke="#13004F" stroke-width="4" stroke-linecap="round" stroke-linejoin="round"/>
<path d="M16.1863 17.0467C16.1862 16.1208 16.4064 15.2081 16.8288 14.3841C17.2512 13.5601 17.8636 12.8485 18.6154 12.3079C19.3672 11.7674 20.2368 11.4136 21.1524 11.2756C22.068 11.1376 23.0033 11.2195 23.881 11.5145C24.7587 11.8095 25.5536 12.3091 26.2001 12.972C26.8465 13.635 27.3259 14.4422 27.5987 15.3271C27.8714 16.2119 27.9297 17.149 27.7687 18.0608C27.6077 18.9727 27.2321 19.8331 26.6728 20.571C26.4552 20.8123 26.2242 21.0411 25.9809 21.2564C25.7819 21.4251 25.6847 21.4943 25.4901 21.6262L23.3733 23.0856C22.85 23.4457 22.4222 23.9278 22.1268 24.4902C21.8315 25.0526 21.6775 25.6785 21.6782 26.3137" stroke="#13004F" stroke-width="4" stroke-linecap="round" stroke-linejoin="round"/>
<path d="M21.6499 32.0864C21.7394 32.0864 21.812 32.159 21.812 32.2485C21.812 32.3381 21.7395 32.4106 21.6499 32.4106C21.5604 32.4106 21.4878 32.3381 21.4878 32.2485C21.4878 32.159 21.5604 32.0865 21.6499 32.0864Z" fill="black" stroke="#13004F" stroke-width="4"/>
</svg>
