<svg width="30" height="30" viewBox="0 0 30 30" fill="none" xmlns="http://www.w3.org/2000/svg">
<path d="M12.875 26.25H6.25C5.58696 26.25 4.95107 25.9866 4.48223 25.5178C4.01339 25.0489 3.75 24.413 3.75 23.75V6.25C3.75 5.58696 4.01339 4.95107 4.48223 4.48223C4.95107 4.01339 5.58696 3.75 6.25 3.75H23.75C24.413 3.75 25.0489 4.01339 25.5178 4.48223C25.9866 4.95107 26.25 5.58696 26.25 6.25V18.75L22.375 14.875C21.9046 14.414 21.2713 14.1572 20.6127 14.1605C19.954 14.1638 19.3233 14.4268 18.8575 14.8925L7.5 26.25" stroke="black" stroke-width="2" stroke-linecap="round" stroke-linejoin="round"/>
<path d="M17.5 24.375L21.25 20.625L25 24.375" stroke="black" stroke-width="2" stroke-linecap="round" stroke-linejoin="round"/>
<path d="M21.25 27.5V20.625" stroke="black" stroke-width="2" stroke-linecap="round" stroke-linejoin="round"/>
<path d="M11.25 13.75C12.6307 13.75 13.75 12.6307 13.75 11.25C13.75 9.86929 12.6307 8.75 11.25 8.75C9.86929 8.75 8.75 9.86929 8.75 11.25C8.75 12.6307 9.86929 13.75 11.25 13.75Z" stroke="black" stroke-width="2" stroke-linecap="round" stroke-linejoin="round"/>
</svg>
