<svg width="17" height="17" viewBox="0 0 17 17" fill="none" xmlns="http://www.w3.org/2000/svg">
<g clip-path="url(#clip0_1114_15)">
<path d="M14.9983 4.82515C15.3728 4.45074 15.5832 3.9429 15.5833 3.41334C15.5833 2.88378 15.373 2.37588 14.9986 2.00138C14.6242 1.62688 14.1164 1.41645 13.5868 1.41638C13.0573 1.41632 12.5494 1.62662 12.1749 2.00103L2.72145 11.4566C2.55699 11.6205 2.43537 11.8224 2.36728 12.0445L1.43158 15.1272C1.41327 15.1884 1.41189 15.2535 1.42758 15.3155C1.44326 15.3774 1.47544 15.434 1.52068 15.4792C1.56593 15.5244 1.62256 15.5565 1.68456 15.572C1.74657 15.5876 1.81164 15.5861 1.87287 15.5677L4.95624 14.6327C5.17807 14.5653 5.37995 14.4444 5.54416 14.2807L14.9983 4.82515Z" stroke="black" stroke-width="2" stroke-linecap="round" stroke-linejoin="round"/>
<path d="M10.625 3.54166L13.4583 6.37499" stroke="black" stroke-width="2" stroke-linecap="round" stroke-linejoin="round"/>
</g>
<defs>
<clipPath id="clip0_1114_15">
<rect width="17" height="17" fill="white"/>
</clipPath>
</defs>
</svg>
