<svg width="40" height="40" viewBox="0 0 40 40" fill="none" xmlns="http://www.w3.org/2000/svg">
<path d="M10.0003 33.3333C9.11627 33.3333 8.26842 32.9821 7.6433 32.357C7.01818 31.7319 6.66699 30.8841 6.66699 30V13.3333C6.66699 12.4493 7.01818 11.6014 7.6433 10.9763C8.26842 10.3512 9.11627 10 10.0003 10H30.0003C30.8844 10 31.7322 10.3512 32.3573 10.9763C32.9825 11.6014 33.3337 12.4493 33.3337 13.3333V30C33.3337 30.8841 32.9825 31.7319 32.3573 32.357C31.7322 32.9821 30.8844 33.3333 30.0003 33.3333" stroke="black" stroke-width="3" stroke-linecap="round" stroke-linejoin="round"/>
<path d="M13.333 30V6.66671C13.333 5.78265 13.6842 4.93481 14.3093 4.30968C14.9344 3.68456 15.7823 3.33337 16.6663 3.33337H23.333C24.2171 3.33337 25.0649 3.68456 25.69 4.30968C26.3152 4.93481 26.6663 5.78265 26.6663 6.66671V30" stroke="black" stroke-width="3" stroke-linecap="round" stroke-linejoin="round"/>
<path d="M16.667 33.3334H23.3337" stroke="black" stroke-width="3" stroke-linecap="round" stroke-linejoin="round"/>
<path d="M26.6663 36.6667C28.5073 36.6667 29.9997 35.1743 29.9997 33.3333C29.9997 31.4924 28.5073 30 26.6663 30C24.8254 30 23.333 31.4924 23.333 33.3333C23.333 35.1743 24.8254 36.6667 26.6663 36.6667Z" stroke="black" stroke-width="3" stroke-linecap="round" stroke-linejoin="round"/>
<path d="M13.3333 36.6667C15.1743 36.6667 16.6667 35.1743 16.6667 33.3333C16.6667 31.4924 15.1743 30 13.3333 30C11.4924 30 10 31.4924 10 33.3333C10 35.1743 11.4924 36.6667 13.3333 36.6667Z" stroke="black" stroke-width="3" stroke-linecap="round" stroke-linejoin="round"/>
</svg>
