<svg width="24" height="17" viewBox="0 0 24 17" fill="none" xmlns="http://www.w3.org/2000/svg">
<path d="M0 16.9V9.70001C0 9.16001 0.11 8.67 0.33 8.23001C0.55 7.79001 0.84 7.40001 1.2 7.06001V3.70001C1.2 2.70001 1.55 1.85001 2.25 1.15001C2.95 0.450006 3.8 0.100006 4.8 0.100006H9.6C10.06 0.100006 10.49 0.185206 10.89 0.355606C11.29 0.526006 11.66 0.760806 12 1.06001C12.34 0.760006 12.71 0.525206 13.11 0.355606C13.51 0.186006 13.94 0.100806 14.4 0.100006H19.2C20.2 0.100006 21.05 0.450006 21.75 1.15001C22.45 1.85001 22.8 2.70001 22.8 3.70001V7.06001C23.16 7.40001 23.45 7.79001 23.67 8.23001C23.89 8.67 24 9.16001 24 9.70001V16.9H21.6V14.5H2.4V16.9H0ZM13.2 6.10001H20.4V3.70001C20.4 3.36001 20.2848 3.07521 20.0544 2.84561C19.824 2.61601 19.5392 2.50081 19.2 2.50001H14.4C14.06 2.50001 13.7752 2.61521 13.5456 2.84561C13.316 3.07601 13.2008 3.36081 13.2 3.70001V6.10001ZM3.6 6.10001H10.8V3.70001C10.8 3.36001 10.6848 3.07521 10.4544 2.84561C10.224 2.61601 9.9392 2.50081 9.6 2.50001H4.8C4.46 2.50001 4.1752 2.61521 3.9456 2.84561C3.716 3.07601 3.6008 3.36081 3.6 3.70001V6.10001ZM2.4 12.1H21.6V9.70001C21.6 9.36001 21.4848 9.07521 21.2544 8.84561C21.024 8.61601 20.7392 8.50081 20.4 8.50001H3.6C3.26 8.50001 2.9752 8.61521 2.7456 8.84561C2.516 9.07601 2.4008 9.36081 2.4 9.70001V12.1Z" fill="#353535"/>
</svg>
