<svg width="25" height="25" viewBox="0 0 25 25" fill="none" xmlns="http://www.w3.org/2000/svg">
<path d="M19.7917 5.20837C19.2391 5.20837 18.7092 5.42787 18.3185 5.81857C17.9278 6.20927 17.7083 6.73917 17.7083 7.29171V18.75" stroke="black" stroke-width="2" stroke-linecap="round" stroke-linejoin="round"/>
<path d="M2.08333 18.75C2.70833 19.2709 3.33333 19.7917 4.6875 19.7917C7.29166 19.7917 7.29166 17.7084 9.89583 17.7084C12.6042 17.7084 12.3958 19.7917 15.1042 19.7917C17.7083 19.7917 17.7083 17.7084 20.3125 17.7084C21.6667 17.7084 22.2917 18.2292 22.9167 18.75" stroke="black" stroke-width="2" stroke-linecap="round" stroke-linejoin="round"/>
<path d="M7.29167 13.5416H17.7083" stroke="black" stroke-width="2" stroke-linecap="round" stroke-linejoin="round"/>
<path d="M7.29167 9.375H17.7083" stroke="black" stroke-width="2" stroke-linecap="round" stroke-linejoin="round"/>
<path d="M9.37501 5.20837C8.82247 5.20837 8.29257 5.42787 7.90187 5.81857C7.51117 6.20927 7.29167 6.73917 7.29167 7.29171V18.75" stroke="black" stroke-width="2" stroke-linecap="round" stroke-linejoin="round"/>
</svg>
