<svg width="24" height="20" viewBox="0 0 24 20" fill="none" xmlns="http://www.w3.org/2000/svg">
<path d="M0.969697 4.21713e-05C0.712517 4.21713e-05 0.465871 0.105399 0.284018 0.292935C0.102164 0.480471 0 0.734824 0 1.00004C0 1.26526 0.102164 1.51961 0.284018 1.70715C0.465871 1.89468 0.712517 2.00004 0.969697 2.00004H3.12242L5.66691 12.5C5.88315 13.39 6.656 14 7.54521 14H19.6373C20.513 14 21.2567 13.4 21.4865 12.53L24 3.00004H21.9695L19.6364 12H7.54424L5.00073 1.50004C4.89566 1.06927 4.65345 0.687319 4.3129 0.415355C3.97235 0.143391 3.55314 -0.00285293 3.12242 4.21713e-05H0.969697ZM18.4242 14C16.8291 14 15.5152 15.355 15.5152 17C15.5152 18.645 16.8291 20 18.4242 20C20.0194 20 21.3333 18.645 21.3333 17C21.3333 15.355 20.0194 14 18.4242 14ZM9.69697 14C8.10182 14 6.78788 15.355 6.78788 17C6.78788 18.645 8.10182 20 9.69697 20C11.2921 20 12.6061 18.645 12.6061 17C12.6061 15.355 11.2921 14 9.69697 14ZM12.6061 4.21713e-05V5.00003H9.69697L13.5758 9.00002L17.4545 5.00003H14.5455V4.21713e-05H12.6061ZM9.69697 16C10.2439 16 10.6667 16.436 10.6667 17C10.6667 17.564 10.2439 18 9.69697 18C9.15006 18 8.72727 17.564 8.72727 17C8.72727 16.436 9.15006 16 9.69697 16ZM18.4242 16C18.9712 16 19.3939 16.436 19.3939 17C19.3939 17.564 18.9712 18 18.4242 18C17.8773 18 17.4545 17.564 17.4545 17C17.4545 16.436 17.8773 16 18.4242 16Z" fill="black"/>
</svg>
