<svg width="34" height="34" viewBox="0 0 34 34" fill="none" xmlns="http://www.w3.org/2000/svg">
<g clip-path="url(#clip0_499_643)">
<path d="M15.9806 26.1629L20.5061 19.0919H25.4558C27.5772 19.0919 29.3449 18.0312 29.6985 16.9706C29.3449 15.9099 27.5772 14.8492 25.4558 14.8492H20.5061L15.9806 7.77816C15.6978 7.3539 15.2735 7.21248 14.8492 7.3539L14.2836 7.49532C13.7886 7.70745 13.5057 8.13172 13.5765 8.62669L14.8492 14.8492L11.3137 15.5563L9.19239 13.435H7.77818L8.48529 16.9706L7.77818 20.5061H9.19239L11.3137 18.3848L14.8492 19.0919L13.5765 25.3144C13.5057 25.8094 13.7886 26.2336 14.2836 26.4458L14.7785 26.6579C15.2735 26.7286 15.6978 26.5872 15.9806 26.1629Z" stroke="black" stroke-width="2" stroke-linecap="round" stroke-linejoin="round"/>
</g>
<defs>
<clipPath id="clip0_499_643">
<rect width="24" height="24" fill="white" transform="translate(16.9706) rotate(45)"/>
</clipPath>
</defs>
</svg>
