<svg width="42" height="29" viewBox="0 0 42 29" fill="none" xmlns="http://www.w3.org/2000/svg">
<path d="M37.5957 1H4.40426C2.52414 1 1 2.55978 1 4.48387V24.5161C1 26.4402 2.52414 28 4.40426 28H37.5957C39.4759 28 41 26.4402 41 24.5161V4.48387C41 2.55978 39.4759 1 37.5957 1Z" fill="white" stroke="black" stroke-opacity="0.2" stroke-width="0.5"/>
<path d="M5.31932 10.8671C4.42886 10.3673 3.4126 9.96528 2.27637 9.68632L2.32403 9.46908H6.98271C7.61418 9.49173 8.12656 9.68616 8.2933 10.3728L9.30576 15.3128L9.61591 16.8006L12.4516 9.46908H15.5135L10.9621 20.2092H7.90014L5.31932 10.8671ZM17.7657 20.2206H14.8701L16.6812 9.46908H19.5766L17.7657 20.2206ZM28.2624 9.73192L27.8686 12.0536L27.6067 11.9394C27.0827 11.722 26.3911 11.5048 25.4498 11.5278C24.3066 11.5278 23.7939 11.9964 23.782 12.454C23.782 12.9574 24.4022 13.2891 25.4149 13.781C27.0832 14.5474 27.857 15.4852 27.8455 16.7091C27.822 18.9396 25.844 20.3809 22.8058 20.3809C21.5068 20.3693 20.2556 20.1057 19.5765 19.8087L19.9817 17.3952L20.3629 17.567C21.3043 17.9677 21.9237 18.1389 23.0797 18.1389C23.9134 18.1389 24.8072 17.8068 24.8186 17.0866C24.8186 16.6176 24.4378 16.2742 23.3176 15.748C22.2215 15.2331 20.7561 14.3754 20.7799 12.8312C20.7922 10.7382 22.8058 9.27419 25.6653 9.27419C26.7854 9.27419 27.6912 9.51438 28.2624 9.73192ZM32.1108 16.4117H34.5176C34.3985 15.8742 33.8502 13.3006 33.8502 13.3006L33.6478 12.3742C33.5049 12.7745 33.2548 13.4265 33.2669 13.4035C33.2669 13.4035 32.3493 15.7941 32.1108 16.4117ZM35.6851 9.46908L38.021 20.2205H35.34C35.34 20.2205 35.0777 18.9852 34.9945 18.6077H31.2769C31.1693 18.8935 30.6692 20.2205 30.6692 20.2205H27.6309L31.9319 10.3611C32.2299 9.66336 32.7546 9.46908 33.4453 9.46908H35.6851Z" fill="#1434CB"/>
</svg>
