<svg width="41" height="29" viewBox="0 0 41 29" fill="none" xmlns="http://www.w3.org/2000/svg">
<path d="M37.6269 27.1562L37.6305 27.1563C39.2391 27.1701 40.5588 25.8524 40.5789 24.2102L40.579 3.96377C40.5725 3.16961 40.257 2.41105 39.7027 1.85523C39.1498 1.30083 38.4045 0.993501 37.6269 1.00012L3.94844 1.0001C3.17447 0.993501 2.42918 1.30083 1.87626 1.85523C1.32193 2.41105 1.00646 3.16961 1.00001 3.96033L1 24.1926C1.00646 24.9868 1.32193 25.7453 1.87626 26.3011C2.42918 26.8555 3.17447 27.1629 3.95203 27.1562H37.6269ZM37.6252 28C37.6246 28 37.6239 28 37.6233 28L37.6269 28H37.6252Z" fill="white" stroke="black" stroke-opacity="0.2" stroke-width="0.5"/>
<path d="M21.8208 27.5781H37.6268C38.514 27.5855 39.3678 27.2395 40.0004 26.6162C40.633 25.9928 40.9925 25.1432 40.9999 24.2543V20.2741C35.0313 23.707 28.5583 26.1722 21.8208 27.5781Z" fill="#F27712"/>
<path d="M39.606 16.266H38.1704L36.5536 14.1293H36.4002V16.266H35.2294V10.9591H36.9578C38.3098 10.9591 39.0903 11.5177 39.0903 12.5232C39.0903 13.3472 38.6025 13.8779 37.7244 14.0455L39.606 16.266ZM37.8777 12.5651C37.8777 12.0484 37.4874 11.7831 36.7626 11.7831H36.4002V13.3891H36.7348C37.4874 13.3891 37.8777 13.1098 37.8777 12.5651ZM31.1316 10.9591H34.4489V11.8529H32.3024V13.04H34.3652V13.9477H32.3024V15.3862H34.4489V16.28H31.1316V10.9591ZM27.3682 16.4057L24.8315 10.9451H26.1138L27.7167 14.5203L29.3335 10.9451H30.588L28.0233 16.4057H27.3961H27.3682ZM16.7612 16.3917C14.9771 16.3917 13.5833 15.1767 13.5833 13.5986C13.5833 12.0624 15.005 10.8194 16.7891 10.8194C17.2908 10.8194 17.709 10.9172 18.2247 11.1406V12.3696C17.8342 11.9852 17.3087 11.7695 16.7612 11.7691C15.6461 11.7691 14.7959 12.5791 14.7959 13.5986C14.7959 14.6739 15.6322 15.442 16.8169 15.442C17.3466 15.442 17.7508 15.2744 18.2247 14.8555V16.0845C17.695 16.3079 17.249 16.3917 16.7612 16.3917ZM13.2209 14.646C13.2209 15.6794 12.3706 16.3917 11.1441 16.3917C10.252 16.3917 9.61084 16.0845 9.06725 15.3862L9.83385 14.7298C10.0987 15.2046 10.5447 15.442 11.1022 15.442C11.6319 15.442 12.0082 15.1208 12.0082 14.7019C12.0082 14.4644 11.8967 14.2829 11.6598 14.1432C11.4 14.0169 11.1294 13.9141 10.8513 13.836C9.75022 13.4869 9.37389 13.1098 9.37389 12.3696C9.37389 11.5037 10.1823 10.8474 11.2416 10.8474C11.9107 10.8474 12.51 11.0568 13.0118 11.4479L12.3985 12.1462C12.1554 11.8792 11.8114 11.7271 11.4507 11.7272C10.9489 11.7272 10.5865 11.9786 10.5865 12.3137C10.5865 12.5931 10.7956 12.7467 11.4925 12.9841C12.8306 13.4031 13.2209 13.7941 13.2209 14.66V14.646ZM7.46434 10.9591H8.63516V16.28H7.46434V10.9591ZM3.701 16.28H1.97266V10.9591H3.701C5.59661 10.9591 6.90681 12.0484 6.90681 13.6125C6.90681 14.4086 6.51654 15.1627 5.83356 15.6655C5.24815 16.0845 4.59305 16.28 3.68707 16.28H3.701ZM5.06696 12.2858C4.67668 11.9786 4.23066 11.8668 3.46405 11.8668H3.14347V15.3862H3.46405C4.21672 15.3862 4.69062 15.2465 5.06696 14.9672C5.47117 14.632 5.70812 14.1293 5.70812 13.6125C5.70812 13.0958 5.47117 12.607 5.06696 12.2858Z" fill="black"/>
<path d="M21.4869 10.8194C19.9537 10.8194 18.6992 12.0484 18.6992 13.5706C18.6992 15.1907 19.8979 16.4057 21.4869 16.4057C23.048 16.4057 24.2745 15.1767 24.2745 13.6125C24.2745 12.0484 23.0619 10.8194 21.4869 10.8194Z" fill="#F27712"/>
</svg>
