<svg width="40" height="27" viewBox="0 0 40 27" fill="none" xmlns="http://www.w3.org/2000/svg">
<path d="M36.6667 0H3.33333C1.49238 0 0 1.51104 0 3.375V23.625C0 25.489 1.49238 27 3.33333 27H36.6667C38.5076 27 40 25.489 40 23.625V3.375C40 1.51104 38.5076 0 36.6667 0Z" fill="#016FD0"/>
<path fill-rule="evenodd" clip-rule="evenodd" d="M22.9399 22.6021V12.981L39.8525 12.9964V15.654L37.8977 17.7691L39.8525 19.9036V22.6176H36.7315L35.0728 20.7645L33.426 22.6246L22.9399 22.6021Z" fill="#FFFFFE"/>
<path fill-rule="evenodd" clip-rule="evenodd" d="M24.0698 21.5473V14.0399H30.357V15.7693H26.1055V16.9433H30.2556V18.644H26.1055V19.7971H30.357V21.5473H24.0698Z" fill="#016FD0"/>
<path fill-rule="evenodd" clip-rule="evenodd" d="M30.3258 21.5474L33.8047 17.7893L30.3257 14.04H33.0184L35.1442 16.4195L37.2761 14.04H39.853V14.0991L36.4483 17.7893L39.853 21.4409V21.5474H37.2502L35.0866 19.1441L32.9454 21.5474H30.3258Z" fill="#016FD0"/>
<path fill-rule="evenodd" clip-rule="evenodd" d="M23.7286 4.44144H27.8054L29.2373 7.7335V4.44144H34.2703L35.1383 6.90783L36.0091 4.44144H39.8524V14.0625H19.5415L23.7286 4.44144Z" fill="#FFFFFE"/>
<path fill-rule="evenodd" clip-rule="evenodd" d="M24.501 5.48619L21.2109 12.9874H23.4674L24.0881 11.4853H27.4514L28.0716 12.9874H30.3843L27.108 5.48619H24.501ZM24.7837 9.80186L25.7703 7.41393L26.7563 9.80186H24.7837Z" fill="#016FD0"/>
<path fill-rule="evenodd" clip-rule="evenodd" d="M30.353 12.9866V5.48549L33.5249 5.49653L35.157 10.108L36.7997 5.48549H39.8524V12.9866L37.8881 13.0042V7.85164L36.0338 12.9866H34.2408L32.348 7.83404V12.9866H30.353Z" fill="#016FD0"/>
</svg>
