<svg width="40" height="27" viewBox="0 0 40 27" fill="none" xmlns="http://www.w3.org/2000/svg">
<path d="M36.6667 0H3.33333C1.49238 0 0 1.51104 0 3.375V23.625C0 25.489 1.49238 27 3.33333 27H36.6667C38.5076 27 40 25.489 40 23.625V3.375C40 1.51104 38.5076 0 36.6667 0Z" fill="#252525"/>
<path d="M15.0003 21.9375C19.6027 21.9375 23.3337 18.1599 23.3337 13.5C23.3337 8.8401 19.6027 5.0625 15.0003 5.0625C10.398 5.0625 6.66699 8.8401 6.66699 13.5C6.66699 18.1599 10.398 21.9375 15.0003 21.9375Z" fill="#EB001B"/>
<path d="M25.0003 21.9375C29.6027 21.9375 33.3337 18.1599 33.3337 13.5C33.3337 8.8401 29.6027 5.0625 25.0003 5.0625C20.398 5.0625 16.667 8.8401 16.667 13.5C16.667 18.1599 20.398 21.9375 25.0003 21.9375Z" fill="#F79E1B"/>
<path fill-rule="evenodd" clip-rule="evenodd" d="M20.0003 6.74937C22.0244 8.28872 23.3337 10.7395 23.3337 13.5C23.3337 16.2604 22.0244 18.7113 20.0003 20.2506C17.9762 18.7113 16.667 16.2604 16.667 13.5C16.667 10.7395 17.9762 8.28872 20.0003 6.74937Z" fill="#FF5F00"/>
</svg>
