<svg width="30" height="20" viewBox="0 0 30 20" fill="none" xmlns="http://www.w3.org/2000/svg">
<g clip-path="url(#clip0_555_462)">
<path d="M14.98 20C10.9062 20 6.83234 20 2.75828 20C2.06932 20 1.43936 19.8263 0.9084 19.3536C0.358437 18.8645 0.068456 18.2466 0.00846001 17.5115C0.00146047 17.4233 0.00196096 17.3337 0.00196096 17.245C0.00196096 12.4147 0.00196096 7.58449 0.00196096 2.75447C0.00196096 1.84616 0.331939 1.09935 1.04239 0.538472C1.53686 0.148253 2.11132 0.00357654 2.72478 0.00204827C4.43667 -0.00100828 6.14872 -0.00100828 7.86094 0.00204827H27.2241C27.9191 0.00204827 28.5561 0.171687 29.093 0.649018C29.643 1.13807 29.933 1.7565 29.993 2.49109C30 2.57923 29.9995 2.66888 29.9995 2.75752C29.9995 7.58789 29.9995 12.4181 29.9995 17.2481C29.9995 18.1569 29.6695 18.9032 28.959 19.4641C28.4536 19.863 27.8661 20.001 27.2391 20.001C23.1528 20.001 19.0664 20.0007 14.98 20ZM29.2355 6.18952H0.775909C0.772409 6.26593 0.76691 6.33419 0.76691 6.40195C0.76691 10.0185 0.76691 13.6354 0.76691 17.2527C0.76691 18.4188 1.54936 19.2236 2.69578 19.2236C10.9002 19.2264 19.1049 19.2242 27.3096 19.217C27.6149 19.2157 27.9164 19.1489 28.1946 19.0209C28.9105 18.6811 29.2355 18.0627 29.236 17.27C29.239 13.6477 29.239 10.025 29.236 6.40195L29.2355 6.18952ZM14.9905 4.2914H28.8825C28.945 4.28809 29.0076 4.28809 29.07 4.2914C29.2055 4.30618 29.239 4.24046 29.2375 4.11361C29.232 3.63068 29.2575 3.14571 29.2265 2.66481C29.2144 2.37396 29.1484 2.08808 29.032 1.82222C28.6845 1.08814 28.0601 0.776882 27.2821 0.776882C19.0954 0.774165 10.9087 0.774165 2.72228 0.776882C2.52864 0.773576 2.33543 0.796706 2.14782 0.845655C1.27588 1.09731 0.775909 1.78503 0.76491 2.702C0.761577 3.11531 0.761577 3.52845 0.76491 3.94143C0.76791 4.33725 0.710913 4.28987 1.09839 4.28987C5.72908 4.29157 10.3598 4.29208 14.9905 4.2914Z" fill="#4E4E4E"/>
<path d="M6.88685 15.3041C6.1809 15.3041 5.47545 15.3041 4.76949 15.3041C3.81056 15.3041 3.1841 14.6709 3.1761 13.6974C3.17177 13.1635 3.17177 12.6298 3.1761 12.0963C3.1841 11.1284 3.81406 10.4896 4.77099 10.487C6.1829 10.4836 7.59464 10.4836 9.00621 10.487C9.96865 10.4896 10.5976 11.1355 10.6016 12.1172C10.6036 12.6449 10.6036 13.1724 10.6016 13.6994C10.5961 14.6582 9.96415 15.3011 9.02371 15.3046C8.31126 15.3062 7.59881 15.3041 6.88685 15.3041ZM6.88085 14.5273C7.59281 14.5273 8.30459 14.5273 9.01621 14.5273C9.52668 14.5273 9.83166 14.2216 9.83416 13.7C9.83649 13.1664 9.83649 12.6329 9.83416 12.0993C9.83166 11.5716 9.52668 11.2649 9.00271 11.2639C7.59114 11.2639 6.17973 11.2639 4.7685 11.2639C4.24953 11.2639 3.94105 11.5777 3.93905 12.1039C3.93705 12.6302 3.93905 13.1584 3.93905 13.6831C3.93905 14.2078 4.24553 14.5242 4.7635 14.5252C5.46945 14.5276 6.17524 14.5283 6.88085 14.5273Z" fill="#4E4E4E"/>
<path d="M20.3244 11.2629H14.3248C14.2373 11.2651 14.1498 11.2617 14.0628 11.2527C13.9816 11.2432 13.9062 11.2052 13.8497 11.1451C13.7932 11.085 13.7591 11.0066 13.7533 10.9236C13.7373 10.7387 13.8033 10.5955 13.9798 10.5308C14.0684 10.5007 14.1613 10.4859 14.2548 10.487C18.3035 10.485 22.3521 10.485 26.4005 10.487C26.7304 10.487 26.9059 10.6322 26.9004 10.8945C26.9008 10.9843 26.8685 11.071 26.8098 11.1379C26.751 11.2048 26.67 11.2472 26.5824 11.2567C26.4954 11.2656 26.4079 11.2688 26.3205 11.2664L20.3244 11.2629Z" fill="#4E4E4E"/>
<path d="M17.1001 14.2934C16.1382 14.2934 15.1761 14.2934 14.2138 14.2934C13.9323 14.2934 13.7774 14.1722 13.7564 13.9486C13.7434 13.8528 13.7674 13.7556 13.8234 13.6775C13.8793 13.5994 13.9629 13.5465 14.0563 13.5298C14.1177 13.5189 14.1801 13.5147 14.2423 13.5171H19.9749C20.025 13.5154 20.0752 13.5177 20.1249 13.5242C20.219 13.5351 20.3054 13.5821 20.3666 13.6556C20.4278 13.7292 20.4592 13.8237 20.4544 13.92C20.4534 14.0133 20.4181 14.1028 20.3554 14.1709C20.2927 14.2389 20.2072 14.2804 20.1159 14.2873C20.0475 14.2939 19.9787 14.2961 19.9099 14.294L17.1001 14.2934Z" fill="#4E4E4E"/>
</g>
<defs>
<clipPath id="clip0_555_462">
<rect width="30" height="20" fill="white"/>
</clipPath>
</defs>
</svg>
