<svg width="35" height="33" viewBox="0 0 35 33" fill="none" xmlns="http://www.w3.org/2000/svg">
<path d="M23.8674 16.5755C23.8674 20.6775 23.8674 24.7748 23.8674 28.8674C23.8674 29.1896 23.9733 29.2814 24.2839 29.3802C25.3286 29.7118 25.8533 30.5068 25.7098 31.4053C25.5498 32.4026 24.7874 33 23.6133 33C17.7934 33 11.9728 33 6.15139 33C4.80074 33 3.44775 33 2.09476 33C0.948831 33 0.184104 32.4167 0.0311572 31.4806C-0.128849 30.4974 0.325286 29.7471 1.44298 29.3825C1.87358 29.2414 1.80769 29.0109 1.80769 28.738C1.80769 24.2268 1.80769 19.7155 1.80769 15.2042C1.80769 12.0407 1.77004 8.87713 1.82886 5.71359C1.8924 2.2725 4.19602 0.0427345 7.64792 0.0168617C11.0998 -0.0090111 14.5847 -0.00195488 18.0554 0.0168617C21.5261 0.0356783 23.8368 2.3266 23.865 5.79121C23.8815 7.90808 23.8886 10.0085 23.8533 12.1183C23.8533 12.6757 24.0133 12.8427 24.5592 12.9203C27.3216 13.3131 29.1782 15.2724 29.3382 18.0243C29.4394 19.7743 29.3852 21.536 29.3899 23.293C29.3899 23.9704 29.4205 24.7042 30.2912 24.7183C31.1618 24.7325 31.2324 24.0433 31.2324 23.3353C31.2183 20.0848 31.2183 16.8334 31.2324 13.5813C31.2324 13.0732 31.1641 12.8639 30.5618 12.7675C28.7664 12.4852 27.5452 10.9846 27.5687 9.10528C27.5687 8.35497 27.3734 7.81634 26.8063 7.36475C26.582 7.1754 26.3771 6.96424 26.1945 6.73439C25.8881 6.39499 25.72 5.95309 25.7234 5.49589C25.7269 5.03868 25.9017 4.59939 26.2134 4.26471C26.8957 3.55909 27.9052 3.43443 28.6676 4.12123C29.9288 5.25964 31.0206 6.60267 32.3454 7.64935C34.4137 9.28404 35.169 11.2339 34.969 13.88C34.7337 17.0553 34.929 20.2635 34.9078 23.4553C34.8866 26.3013 33.2819 28.11 30.5947 28.3758C28.2581 28.611 25.9286 26.7294 25.7851 24.3773C25.6722 22.5097 25.738 20.6304 25.7122 18.7558C25.7004 17.3046 25.2298 16.7401 23.8674 16.5755ZM12.8458 16.5049C10.6739 16.5049 8.50207 16.5261 6.33022 16.4908C5.71843 16.4908 5.47843 16.5661 5.48549 17.2764C5.52784 21.0397 5.51608 24.8218 5.48549 28.5969C5.48549 29.1332 5.5749 29.3472 6.1914 29.3425C10.6229 29.3143 15.0553 29.3143 19.4884 29.3425C20.1119 29.3425 20.1943 29.1261 20.1943 28.5946C20.1731 24.8313 20.159 21.0468 20.1943 17.274C20.1943 16.5684 19.959 16.4814 19.3519 16.4908C17.1918 16.5308 15.0176 16.5049 12.8458 16.5049ZM12.8458 12.831C15.0764 12.831 17.3165 12.831 19.5378 12.831C19.9943 12.831 20.2084 12.7698 20.2014 12.2312C20.1684 10.0649 20.2013 7.90102 20.1825 5.73711C20.1825 4.39643 19.4531 3.68845 18.1001 3.68374C14.6082 3.66963 11.1147 3.66963 7.61969 3.68374C6.23375 3.68374 5.52078 4.41994 5.50196 5.81472C5.48784 7.91983 5.52549 10.0273 5.48313 12.1324C5.47137 12.7439 5.68784 12.838 6.22904 12.838C8.43854 12.8192 10.641 12.8357 12.8434 12.8357L12.8458 12.831Z" fill="#030303"/>
</svg>
