<svg width="35" height="31" viewBox="0 0 35 31" fill="none" xmlns="http://www.w3.org/2000/svg">
<g clip-path="url(#clip0_480_227)">
<path d="M17.5149 30.9705C13.1142 30.9705 8.71352 30.882 4.31285 30.9705C3.95221 31.0354 3.58219 31.0254 3.22556 30.941C2.86893 30.8566 2.53325 30.6997 2.23917 30.48C1.9451 30.2602 1.69886 29.9822 1.51563 29.6631C1.33239 29.344 1.21602 28.9905 1.1737 28.6245C0.845368 26.4691 0.639668 24.2966 0.557607 22.1176C0.396249 19.9339 0.293565 17.5583 0.0295252 15.3304C-0.0636093 13.9265 0.173397 12.5203 0.721335 11.2257C1.26927 9.93115 2.11273 8.78466 3.18334 7.87914C7.91158 3.71627 13.8252 1.16036 20.0819 0.575476C24.5053 0.105593 28.9553 -0.0620133 33.4013 0.0738095C34.5161 0.0738095 34.9709 0.604986 34.8682 1.8444C34.6921 10.476 35.0589 20.1109 34.8682 28.7278C34.8682 31.6788 33.592 30.6754 29.8954 31.0295L17.5149 30.9705ZM4.18082 14.4156C3.31536 14.4156 3.43271 16.3042 3.43271 16.9829C3.69675 21.6749 3.62341 22.0291 3.99013 26.5441C4.07814 27.7835 4.54755 28.1523 5.95576 28.1376C14.317 28.0638 21.9449 27.7687 30.3061 27.8572C32.0957 27.8572 31.8757 27.9753 31.9931 26.3818C32.1544 20.0667 31.9931 19.624 31.8904 14.991C31.7877 12.7483 33.0346 14.1647 32.0811 14.0467C27.3577 14.0467 22.2676 14.3418 17.5735 14.327M31.9931 10.8301L31.8904 6.52169C31.8904 2.09523 33.504 2.89199 29.0886 2.83297C21.9742 2.7592 15.8866 3.39366 9.60832 6.81679C7.54513 7.7668 5.69782 9.13278 4.18082 10.8301" fill="black"/>
<path d="M25.6705 17.0124C26.8587 17.1156 28.2669 16.6877 28.1642 18.4878C28.0616 20.2879 28.4136 19.9633 25.3185 19.9633C24.705 20.0271 24.0853 19.9872 23.4849 19.8453C23.0888 19.7125 23.1622 19.5797 23.0888 18.6354C23.0155 17.6911 23.0888 17.4255 23.5729 17.2337C24.191 17.0257 24.8456 16.9503 25.4945 17.0124H25.6705Z" fill="black"/>
</g>
<defs>
<clipPath id="clip0_480_227">
<rect width="35" height="31" fill="white"/>
</clipPath>
</defs>
</svg>
