<svg width="35" height="28" viewBox="0 0 35 28" fill="none" xmlns="http://www.w3.org/2000/svg">
<g clip-path="url(#clip0_477_216)">
<path d="M0 7.18153C0 5.49619 0 3.81085 0 2.12083C0 1.08154 0.0925259 0.0188311 1.45256 0.000105088C2.90048 0.000105088 3.01613 1.07685 3.01613 2.19573C3.01613 4.86886 3.09477 7.54668 3.01613 10.2198C2.96525 11.9098 3.64063 12.5606 5.25971 12.4201C6.40751 12.3522 7.55826 12.3522 8.70606 12.4201C10.0938 12.4857 10.6952 11.8911 10.6675 10.4679C10.6258 7.73395 10.6675 4.99996 10.6675 2.27065C10.6675 1.18922 10.6675 0.0188311 12.1524 0.000105088C13.6373 -0.0186209 13.6882 1.12366 13.6929 2.22381C13.6929 4.9578 13.7391 7.6918 13.6929 10.4211C13.6929 11.8256 14.1554 12.481 15.6033 12.4154C16.9217 12.3546 18.2448 12.378 19.5678 12.4154C20.8122 12.4529 21.3349 11.8677 21.3257 10.6271C21.3257 7.8182 21.3257 5.04676 21.3257 2.25659C21.3257 1.1658 21.3627 0.00947264 22.8291 0.00479115C24.2955 0.00010966 24.351 1.14709 24.351 2.24724C24.351 4.97655 24.3881 7.71052 24.351 10.4445C24.3279 11.849 24.8645 12.4903 26.2801 12.4248C27.5985 12.3686 28.9215 12.3827 30.2445 12.4248C31.4981 12.4576 32.0024 11.8583 31.9931 10.6271C31.9654 7.8182 31.9931 5.04207 31.9931 2.2519C31.9931 1.1658 32.0255 0.00948179 33.5012 0.0141633C34.9769 0.0188448 35.0139 1.1658 35.0139 2.26127C35.0139 5.57577 35.0139 8.89026 35.0139 12.2048C34.9907 14.5455 34.0887 15.449 31.7433 15.4818C29.8929 15.5146 28.0657 15.5239 26.2292 15.4818C24.9154 15.4537 24.351 16.0202 24.3788 17.3544C24.4158 20.1633 24.3788 22.9394 24.3788 25.7296C24.3788 26.8438 24.2585 27.9533 22.8014 27.9112C21.4737 27.869 21.358 26.8157 21.358 25.7671C21.358 23.0331 21.3072 20.2991 21.358 17.5698C21.3904 16.0951 20.8723 15.3975 19.3596 15.4771C18.1014 15.5427 16.8339 15.5286 15.571 15.4771C14.3081 15.4256 13.6929 16.0014 13.7206 17.3497C13.7576 20.1961 13.7669 23.0471 13.6836 25.8981C13.6714 26.5712 13.4029 27.2135 12.9342 27.6911C11.9581 28.4823 10.7553 27.635 10.7183 26.1135C10.6582 23.3795 10.7184 20.6455 10.686 17.9162C10.686 15.6691 10.5194 15.5005 8.373 15.4818C6.76317 15.4818 5.13482 15.4818 3.54812 15.4818C0.925198 15.4818 0.078639 14.5923 0.0555092 11.8864C0.0555092 10.3181 0.0555092 8.74514 0.0555092 7.17684L0 7.18153Z" fill="black"/>
</g>
<defs>
<clipPath id="clip0_477_216">
<rect width="35" height="28" fill="white"/>
</clipPath>
</defs>
</svg>
